<svg width="96" height="96" viewBox="0 0 96 96" fill="none" xmlns="http://www.w3.org/2000/svg"><g filter="url(#filter0_d_1844_64)"><mask id="mask0_1844_64" style="mask-type:alpha" maskUnits="userSpaceOnUse" x="6" y="6" width="84" height="84"><path fill-rule="evenodd" clip-rule="evenodd" d="M65.566 89.426a5.228 5.228 0 0 0 4.167-.16l17.294-8.321A5.25 5.25 0 0 0 90 76.213V19.787a5.25 5.25 0 0 0-2.973-4.731L69.733 6.734a5.23 5.23 0 0 0-5.967 1.016L30.658 37.955l-14.42-10.947a3.496 3.496 0 0 0-4.468.199l-4.625 4.207a3.501 3.501 0 0 0-.004 5.176L19.648 48 7.14 59.41a3.502 3.502 0 0 0 .004 5.176l4.625 4.207a3.496 3.496 0 0 0 4.467.2l14.421-10.948L63.766 88.25a5.223 5.223 0 0 0 1.8 1.176Zm3.447-60.495-25.121 19.07 25.12 19.068V28.931Z" fill="#fff"/></mask><g mask="url(#mask0_1844_64)"><path d="M87.028 15.069 69.72 6.735a5.232 5.232 0 0 0-5.97 1.015L7.09 59.41a3.5 3.5 0 0 0 .005 5.176l4.628 4.207a3.5 3.5 0 0 0 4.47.199l68.23-51.761C86.713 15.494 90 17.127 90 20v-.2a5.25 5.25 0 0 0-2.972-4.731Z" fill="#0065A9"/><g filter="url(#filter1_d_1844_64)"><path d="M87.028 80.931 69.72 89.265a5.232 5.232 0 0 1-5.97-1.015L7.09 36.59a3.5 3.5 0 0 1 .005-5.176l4.628-4.207a3.5 3.5 0 0 1 4.47-.199l68.23 51.761C86.713 80.506 90 78.873 90 76v.201a5.25 5.25 0 0 1-2.972 4.73Z" fill="#007ACC"/></g><g filter="url(#filter2_d_1844_64)"><path d="M69.72 89.266a5.235 5.235 0 0 1-5.97-1.016c1.937 1.937 5.25.565 5.25-2.175V9.925c0-2.74-3.313-4.112-5.25-2.175a5.235 5.235 0 0 1 5.97-1.016l17.305 8.322A5.25 5.25 0 0 1 90 19.787v56.426a5.25 5.25 0 0 1-2.975 4.732l-17.304 8.321Z" fill="#1F9CF0"/></g><g opacity=".25" style="mix-blend-mode:overlay"><path fill-rule="evenodd" clip-rule="evenodd" d="M65.515 89.426a5.228 5.228 0 0 0 4.167-.16l17.294-8.322a5.25 5.25 0 0 0 2.973-4.73V19.786a5.25 5.25 0 0 0-2.973-4.731L69.682 6.734a5.23 5.23 0 0 0-5.967 1.016L30.607 37.955l-14.42-10.947a3.496 3.496 0 0 0-4.468.199l-4.625 4.207a3.501 3.501 0 0 0-.004 5.176L19.596 48 7.09 59.41a3.501 3.501 0 0 0 .004 5.176l4.625 4.207a3.496 3.496 0 0 0 4.467.199l14.421-10.947L63.715 88.25a5.223 5.223 0 0 0 1.8 1.176Zm3.447-60.495L43.84 48l25.12 19.069V28.931Z" fill="url(#paint0_linear_1844_64)"/></g></g></g><defs><filter id="filter0_d_1844_64" x="3" y="4" width="90" height="90" filterUnits="userSpaceOnUse" color-interpolation-filters="sRGB"><feFlood flood-opacity="0" result="BackgroundImageFix"/><feColorMatrix in="SourceAlpha" values="0 0 0 0 0 0 0 0 0 0 0 0 0 0 0 0 0 0 127 0" result="hardAlpha"/><feOffset dy="1"/><feGaussianBlur stdDeviation="1.5"/><feColorMatrix values="0 0 0 0 0 0 0 0 0 0 0 0 0 0 0 0 0 0 0.25 0"/><feBlend in2="BackgroundImageFix" result="effect1_dropShadow_1844_64"/><feBlend in="SourceGraphic" in2="effect1_dropShadow_1844_64" result="shape"/></filter><filter id="filter1_d_1844_64" x="-1.051" y="19.296" width="98.051" height="77.486" filterUnits="userSpaceOnUse" color-interpolation-filters="sRGB"><feFlood flood-opacity="0" result="BackgroundImageFix"/><feColorMatrix in="SourceAlpha" values="0 0 0 0 0 0 0 0 0 0 0 0 0 0 0 0 0 0 127 0" result="hardAlpha"/><feOffset/><feGaussianBlur stdDeviation="3.5"/><feColorMatrix values="0 0 0 0 0 0 0 0 0 0 0 0 0 0 0 0 0 0 0.25 0"/><feBlend mode="overlay" in2="BackgroundImageFix" result="effect1_dropShadow_1844_64"/><feBlend in="SourceGraphic" in2="effect1_dropShadow_1844_64" result="shape"/></filter><filter id="filter2_d_1844_64" x="56.75" y="-.783" width="40.25" height="97.567" filterUnits="userSpaceOnUse" color-interpolation-filters="sRGB"><feFlood flood-opacity="0" result="BackgroundImageFix"/><feColorMatrix in="SourceAlpha" values="0 0 0 0 0 0 0 0 0 0 0 0 0 0 0 0 0 0 127 0" result="hardAlpha"/><feOffset/><feGaussianBlur stdDeviation="3.5"/><feColorMatrix values="0 0 0 0 0 0 0 0 0 0 0 0 0 0 0 0 0 0 0.25 0"/><feBlend mode="overlay" in2="BackgroundImageFix" result="effect1_dropShadow_1844_64"/><feBlend in="SourceGraphic" in2="effect1_dropShadow_1844_64" result="shape"/></filter><linearGradient id="paint0_linear_1844_64" x1="47.949" y1="6.217" x2="47.949" y2="89.784" gradientUnits="userSpaceOnUse"><stop stop-color="#fff"/><stop offset="1" stop-color="#fff" stop-opacity="0"/></linearGradient></defs></svg>